<?xml version="1.0" encoding="utf-8"?>
<!-- Generator: Adobe Illustrator 15.1.0, SVG Export Plug-In . SVG Version: 6.00 Build 0)  -->
<!DOCTYPE svg PUBLIC "-//W3C//DTD SVG 1.1//EN" "http://www.w3.org/Graphics/SVG/1.1/DTD/svg11.dtd">
<svg version="1.1" id="Layer_1" xmlns="http://www.w3.org/2000/svg" xmlns:xlink="http://www.w3.org/1999/xlink" x="0px" y="0px"
	 width="40px" height="40px" viewBox="0 0 40 40" enable-background="new 0 0 40 40" xml:space="preserve">
<path fill="#231F20" d="M8.503,18.774c0.045-0.272,0.177-0.533,0.396-0.78c0.22-0.251,0.524-0.375,0.916-0.375h7.89v-7.89
	c0-0.585,0.196-0.963,0.589-1.129c0.392-0.166,0.979-0.25,1.764-0.25c0.526,0,0.934,0.021,1.221,0.067
	c0.287,0.044,0.543,0.173,0.77,0.386c0.225,0.21,0.337,0.52,0.337,0.925v7.89h7.89c0.589-0.014,0.97,0.178,1.144,0.577
	c0.172,0.399,0.258,0.991,0.258,1.774c0,0.527-0.028,0.926-0.078,1.196c-0.053,0.272-0.186,0.529-0.396,0.77
	c-0.21,0.241-0.52,0.36-0.928,0.36h-7.89v7.889c0,0.588-0.195,0.971-0.588,1.142c-0.392,0.173-0.971,0.261-1.742,0.261
	c-0.527,0-0.926-0.026-1.197-0.08c-0.272-0.054-0.524-0.184-0.757-0.396c-0.234-0.211-0.367-0.521-0.396-0.927v-7.889h-7.89
	c-0.588,0-0.965-0.193-1.13-0.586c-0.167-0.393-0.25-0.973-0.25-1.74C8.436,19.444,8.459,19.044,8.503,18.774 M5.645,6.026
	c-1.755,1.822-3.142,3.965-4.161,6.429c-1.016,2.465-1.51,5.064-1.481,7.799c0.029,2.735,0.584,5.332,1.661,7.788
	c1.079,2.456,2.528,4.562,4.354,6.317c1.823,1.754,3.972,3.141,6.442,4.157c2.472,1.02,5.073,1.512,7.801,1.482
	c2.727-0.03,5.32-0.584,7.779-1.663c2.456-1.077,4.563-2.526,6.318-4.352c1.755-1.821,3.142-3.971,4.16-6.441
	c1.017-2.474,1.512-5.069,1.481-7.797c-0.029-2.728-0.584-5.32-1.663-7.775c-1.08-2.458-2.529-4.564-4.353-6.319
	S30.01,2.51,27.538,1.493c-2.469-1.017-5.066-1.515-7.795-1.492c-2.729,0.022-5.328,0.575-7.8,1.661
	C9.501,2.749,7.399,4.202,5.645,6.026"/>
</svg>
