<?xml version="1.0" encoding="utf-8"?>
<!-- Generator: Adobe Illustrator 15.1.0, SVG Export Plug-In . SVG Version: 6.00 Build 0)  -->
<!DOCTYPE svg PUBLIC "-//W3C//DTD SVG 1.1//EN" "http://www.w3.org/Graphics/SVG/1.1/DTD/svg11.dtd">
<svg version="1.1" id="Layer_1" xmlns="http://www.w3.org/2000/svg" xmlns:xlink="http://www.w3.org/1999/xlink" x="0px" y="0px"
	 width="40px" height="40px" viewBox="0 0 40 40" enable-background="new 0 0 40 40" xml:space="preserve">
<path id="info-5-icon" d="M20,0C8.954,0,0,8.954,0,20s8.954,20,20,20s20-8.954,20-20S31.046,0,20,0z M19.61,31.741
	c-2.883,1.013-5.259-0.149-4.783-2.917c0.477-2.77,3.213-8.698,3.603-9.819c0.39-1.121-0.358-1.428-1.16-0.973
	c-0.462,0.267-1.149,0.802-1.739,1.321c-0.164-0.33-0.394-0.706-0.566-1.066c0.962-0.965,2.572-2.258,4.477-2.727
	c2.276-0.562,6.081,0.336,4.445,4.687c-1.167,3.101-1.993,5.24-2.513,6.834c-0.52,1.594,0.098,1.928,1.008,1.307
	c0.711-0.486,1.469-1.146,2.024-1.658c0.257,0.417,0.339,0.551,0.593,1.03C24.035,28.749,21.514,31.061,19.61,31.741z M25.584,12.56
	c-1.308,1.113-3.246,1.089-4.33-0.054s-0.903-2.972,0.404-4.085c1.308-1.113,3.246-1.089,4.33,0.054
	C27.073,9.618,26.892,11.447,25.584,12.56z"/>
</svg>
