<?xml version="1.0" encoding="utf-8"?>
<!-- Generator: Adobe Illustrator 15.1.0, SVG Export Plug-In . SVG Version: 6.00 Build 0)  -->
<!DOCTYPE svg PUBLIC "-//W3C//DTD SVG 1.1//EN" "http://www.w3.org/Graphics/SVG/1.1/DTD/svg11.dtd">
<svg version="1.1" id="Layer_1" xmlns="http://www.w3.org/2000/svg" xmlns:xlink="http://www.w3.org/1999/xlink" x="0px" y="0px"
	 width="40px" height="40px" viewBox="0 0 40 40" enable-background="new 0 0 40 40" xml:space="preserve">
<g>
	<path fill="#231F20" d="M28.3,17.366c-0.011,3.623-0.767,6.24-2.266,7.851c0.576,0.01,1.389,0.366,2.433,1.067
		c0.355,0.231,0.761,0.46,1.217,0.682l0.35,0.333c0.367,0.256,0.661,0.495,0.884,0.718l0.851,0.883c0.599,0,2.183-0.35,4.749-1.05
		C38.839,27.029,40,26.037,40,24.875c0-1.161-0.988-2.264-2.967-3.309c-1.522-0.821-3.15-1.344-4.883-1.566v-1.75
		c1.732-1.756,2.601-3.917,2.601-6.483c-0.012-4.411-1.757-6.617-5.234-6.617c-1.744,0-2.845,0.228-3.3,0.684
		c-0.601,0.455-1.011,1.5-1.233,3.133C27.194,10.466,28.3,13.266,28.3,17.366"/>
	<path fill="#231F20" d="M16.25,34.683c1.044,0.111,2.266,0.167,3.667,0.167c1.4,0,2.621-0.056,3.666-0.167
		c1.633-0.232,3.327-0.589,5.084-1.066c1.611-0.478,2.417-1.183,2.417-2.116c0-1.156-0.989-2.253-2.968-3.292
		c-1.977-1.039-3.772-1.625-5.383-1.758v-1.917c1.845-1.755,2.767-4.089,2.767-7.001c0-4.777-1.861-7.166-5.583-7.166
		s-5.583,2.389-5.583,7.166c-0.023,2.912,0.899,5.246,2.766,7.001v1.917c-1.622,0.11-3.422,0.688-5.399,1.733
		c-2.112,1.299-3.167,2.41-3.167,3.332c0,0.923,0.883,1.626,2.65,2.109C12.949,34.109,14.638,34.462,16.25,34.683"/>
	<path fill="#231F20" d="M3.3,27.85c2.578,0.7,4.15,1.05,4.716,1.05L8.9,28.017c0.222-0.223,0.505-0.462,0.849-0.718l0.383-0.333
		l1.234-0.682c1.022-0.713,1.827-1.067,2.417-1.067c-1.522-1.611-2.283-4.228-2.283-7.851c0.022-4.1,1.139-6.9,3.351-8.399
		c-0.234-1.634-0.645-2.678-1.234-3.133C13.162,5.378,12.056,5.15,10.3,5.15c-3.501,0-5.25,2.206-5.25,6.617
		c0,2.567,0.877,4.728,2.633,6.483V20C5.927,20.222,4.3,20.745,2.8,21.566C0.933,22.734,0,23.839,0,24.883
		C0,26.162,1.1,27.151,3.3,27.85"/>
</g>
</svg>
