<?xml version="1.0" encoding="utf-8"?>
<!-- Generator: Adobe Illustrator 15.1.0, SVG Export Plug-In . SVG Version: 6.00 Build 0)  -->
<!DOCTYPE svg PUBLIC "-//W3C//DTD SVG 1.1//EN" "http://www.w3.org/Graphics/SVG/1.1/DTD/svg11.dtd">
<svg version="1.1" id="Layer_1" xmlns="http://www.w3.org/2000/svg" xmlns:xlink="http://www.w3.org/1999/xlink" x="0px" y="0px"
	 width="40px" height="40px" viewBox="0 0 40 40" enable-background="new 0 0 40 40" xml:space="preserve">
<path fill="#231F20" d="M29.5,17.598c0,5.247-4.263,9.514-9.5,9.514c-5.239,0-9.5-4.267-9.5-9.514h2c0,4.143,3.364,7.511,7.5,7.511
	c4.137,0,7.5-3.368,7.5-7.511H29.5z M29.5,10.588c0,1.66-1.344,3.004-3,3.004c-1.657,0-3-1.345-3-3.004c0-1.658,1.344-3.004,3-3.004
	C28.157,7.583,29.5,8.93,29.5,10.588 M16.5,10.588c0,1.66-1.343,3.004-3,3.004s-3-1.345-3-3.004c0-1.658,1.343-3.004,3-3.004
	S16.5,8.93,16.5,10.588 M36.069,27.174V5.007c0,0,0-5.007-5-5.007H8.931c0,0-5,0-5,5.007v22.167c0,0,0,5.007,5,5.007h6.731L20,40
	l4.338-7.819h6.731C31.069,32.181,36.069,32.181,36.069,27.174"/>
</svg>
