<?xml version="1.0" encoding="utf-8"?>
<!-- Generator: Adobe Illustrator 15.1.0, SVG Export Plug-In . SVG Version: 6.00 Build 0)  -->
<!DOCTYPE svg PUBLIC "-//W3C//DTD SVG 1.1//EN" "http://www.w3.org/Graphics/SVG/1.1/DTD/svg11.dtd">
<svg version="1.1" id="Layer_1" xmlns="http://www.w3.org/2000/svg" xmlns:xlink="http://www.w3.org/1999/xlink" x="0px" y="0px"
	 width="40px" height="40px" viewBox="0 0 40 40" enable-background="new 0 0 40 40" xml:space="preserve">
<path fill="#231F20" d="M11.879,18.774h2.85v3.269h10.523v-3.269h2.869v4.086l-0.08,0.498c-0.026,0.346-0.211,0.688-0.558,1.026
	c-0.345,0.339-0.817,0.509-1.415,0.509H13.913c-0.387,0-0.722-0.073-1.008-0.22c-0.285-0.146-0.488-0.31-0.607-0.488
	c-0.119-0.178-0.213-0.385-0.279-0.618c-0.066-0.232-0.105-0.395-0.119-0.488c-0.014-0.093-0.02-0.166-0.02-0.219V18.774z
	 M30.155,5.721c0-0.386-0.072-0.722-0.219-1.007c-0.147-0.285-0.31-0.488-0.489-0.608c-0.18-0.119-0.386-0.215-0.617-0.289
	c-0.233-0.072-0.396-0.116-0.489-0.129c-0.093-0.013-0.166-0.021-0.22-0.021H11.879l-0.498,0.08
	c-0.359,0.039-0.709,0.229-1.047,0.568c-0.34,0.338-0.508,0.807-0.508,1.405h20.329V5.721z M34.202,11.838V9.806
	c0-0.386-0.078-0.721-0.229-1.006c-0.153-0.286-0.315-0.491-0.489-0.618c-0.173-0.126-0.367-0.223-0.588-0.289
	c-0.219-0.066-0.375-0.106-0.468-0.119c-0.093-0.014-0.166-0.021-0.22-0.021H7.793L7.295,7.832C6.976,7.858,6.646,8.044,6.308,8.391
	C5.97,8.735,5.8,9.208,5.8,9.806v2.033H34.202z M0.119,15.925l0.897,5.142l1.476,8.49c0.518,2.963,0.789,4.538,0.816,4.725
	c0.105,0.638,0.382,1.126,0.827,1.465c0.445,0.337,0.795,0.521,1.047,0.547c0.253,0.026,0.459,0.04,0.618,0.04h28.402l0.537-0.04
	c0.373-0.026,0.764-0.213,1.176-0.558c0.412-0.346,0.67-0.831,0.777-1.455c0.026-0.186,0.299-1.761,0.817-4.724l1.475-8.49
	l0.897-5.142c0.08-0.412,0.119-0.78,0.119-1.106c0-0.326-0.014-0.591-0.039-0.797c-0.027-0.206-0.117-0.425-0.27-0.659
	c-0.152-0.231-0.273-0.395-0.359-0.488s-0.262-0.259-0.527-0.499l-1.754-1.753v3.249H2.93v-3.249l-1.754,1.753
	c-0.266,0.24-0.443,0.406-0.529,0.499c-0.085,0.094-0.202,0.257-0.348,0.488c-0.146,0.233-0.232,0.453-0.26,0.659
	C0.013,14.228,0,14.492,0,14.818C0,15.144,0.039,15.513,0.119,15.925"/>
</svg>
