<?xml version="1.0" encoding="utf-8"?>
<!-- Generator: Adobe Illustrator 15.1.0, SVG Export Plug-In . SVG Version: 6.00 Build 0)  -->
<!DOCTYPE svg PUBLIC "-//W3C//DTD SVG 1.1//EN" "http://www.w3.org/Graphics/SVG/1.1/DTD/svg11.dtd">
<svg version="1.1" id="Layer_1" xmlns="http://www.w3.org/2000/svg" xmlns:xlink="http://www.w3.org/1999/xlink" x="0px" y="0px"
	 width="40px" height="40px" viewBox="0 0 40 40" enable-background="new 0 0 40 40" xml:space="preserve">
<path id="speech-bubble-15-icon" d="M12.044,29.637c-0.003-0.001-0.006-0.001-0.009-0.002c-2.514,1.563-8.057,3.146-11.956,3.86
	c1.455-2.912,3.069-6.909,2.987-9.695C1.107,21.421,0,18.356,0,15.235C0,6.435,8.484,0,17.981,0c9.439,0,17.981,6.386,17.981,15.235
	c0,0.125-0.002,0.251-0.006,0.376c-1.095-0.597-2.282-1.082-3.555-1.438c-0.666-5.962-6.878-10.65-14.42-10.65
	c-7.984,0-14.479,5.254-14.479,11.711c0,3.398,1.457,5.537,3.514,7.647c-0.418,3.133-1.422,5.856-1.422,5.856s2.965-0.79,6.335-2.77
	C11.786,27.211,11.826,28.435,12.044,29.637z M39.945,40c-2.683-0.493-6.497-1.581-8.227-2.657
	c-9.524,2.354-16.466-3.568-16.466-9.909c0-6.089,5.878-10.484,12.374-10.484C34.162,16.95,40,21.378,40,27.434
	c0,2.148-0.762,4.257-2.11,5.894C37.833,35.246,38.944,37.996,39.945,40z M24.517,27.562c0-0.945-0.761-1.711-1.7-1.711
	s-1.701,0.766-1.701,1.711s0.762,1.711,1.701,1.711S24.517,28.507,24.517,27.562z M29.587,27.562c0-0.945-0.761-1.711-1.701-1.711
	c-0.939,0-1.7,0.766-1.7,1.711s0.761,1.711,1.7,1.711C28.826,29.273,29.587,28.507,29.587,27.562z M34.596,27.562
	c0-0.945-0.762-1.711-1.701-1.711s-1.701,0.766-1.701,1.711s0.762,1.711,1.701,1.711S34.596,28.507,34.596,27.562z"/>
</svg>
