<?xml version="1.0" encoding="utf-8"?>
<!-- Generator: Adobe Illustrator 15.1.0, SVG Export Plug-In . SVG Version: 6.00 Build 0)  -->
<!DOCTYPE svg PUBLIC "-//W3C//DTD SVG 1.1//EN" "http://www.w3.org/Graphics/SVG/1.1/DTD/svg11.dtd">
<svg version="1.1" id="Layer_1" xmlns="http://www.w3.org/2000/svg" xmlns:xlink="http://www.w3.org/1999/xlink" x="0px" y="0px"
	 width="40px" height="40px" viewBox="0 0 40 40" enable-background="new 0 0 40 40" xml:space="preserve">
<path id="map-5-icon" d="M19.709,1.76c-4.756,0-8.611,3.855-8.611,8.611c0,7.072,6.773,7.82,8.611,18.575
	c1.838-10.756,8.611-11.503,8.611-18.575C28.32,5.615,24.464,1.76,19.709,1.76z M19.709,13.25c-1.706,0-3.088-1.383-3.088-3.088
	c0-1.706,1.382-3.089,3.088-3.089s3.088,1.383,3.088,3.089C22.797,11.867,21.415,13.25,19.709,13.25z M40,38.24l-11.179-4.045
	l-9.094,4.045l-9.029-4.045L0,38.24l6.56-13.054l7.317-3.183c0.527,0.762,1.029,1.592,1.477,2.547
	c-1.592,0.683-0.246,0.101-6.667,2.891l-2.73,5.433l4.508-1.705l2.621-4.676l-1.06,5.081l6.926,3.105l0.776-3.501l0.874,3.533
	l6.958-3.138l-1.063-5.228l2.641,4.865l4.977,1.801l-2.795-5.562l-7.184-3.05c0.453-0.938,0.97-1.776,1.498-2.529l7.809,3.314
	L40,38.24z"/>
</svg>
